<svg xmlns="http://www.w3.org/2000/svg" viewBox="0 0 272 90">
  <path fill="#dedede" d="M0 0h272v90H0z" mask="url(#a)"/>
  <defs>
    <mask id="a" fill="#fff">
      <circle cx="154.307" cy="-181.892" r="210.695" fill="none" stroke="#fff" stroke-width="2.5"/>
      <circle cx="154.307" cy="-181.892" r="233.749" fill="none" stroke="#fff" stroke-width="2.5"/>
      <circle cx="175.487" cy="28.229" r="6" fill="#000" stroke="#fff" stroke-width="2"/>
      <circle cx="126.7" cy="50.15" r="4.5" fill="#000" stroke="#fff" stroke-width="2"/>
      <circle cx="196.27" cy="24.989" r="3"/>
      <path d="M197.657 61.012v.026l.004.118q.008.165.047.49c.055.43.166 1.052.391 1.797.45 1.489 1.351 3.462 3.166 5.37 1.797 1.89 3.75 2.783 5.25 3.206a10 10 0 0 0 1.828.345 7 7 0 0 0 .628.03H209a.87.87 0 0 1 .108 1.736h-.004l-.012.002-.018.001-.128.016c-.116.015-.291.04-.515.082a14.5 14.5 0 0 0-1.857.479c-1.53.5-3.516 1.412-5.362 3.053-1.8 1.6-2.693 3.538-3.134 5.093a11.5 11.5 0 0 0-.378 1.926 9 9 0 0 0-.045.686v.035a.87.87 0 0 1-1.741.023v-.005l-.001-.03-.007-.14a9 9 0 0 0-.055-.552 12.6 12.6 0 0 0-.408-1.935c-.46-1.565-1.356-3.508-3.098-5.11-1.774-1.633-3.752-2.543-5.298-3.043a15 15 0 0 0-1.887-.48 10 10 0 0 0-.691-.1h-.003a.87.87 0 0 1 .053-1.738h.001l.025-.001q.037 0 .118-.007a8 8 0 0 0 .488-.055 11 11 0 0 0 1.782-.418c1.471-.472 3.41-1.404 5.252-3.247 1.843-1.843 2.775-3.781 3.247-5.253a11 11 0 0 0 .418-1.782 7 7 0 0 0 .063-.605v-.027a.87.87 0 0 1 1.74.012zm0 0"/>
    </mask>
  </defs>
</svg>
