<svg xmlns="http://www.w3.org/2000/svg" viewBox="0 0 48 48">
  <path d="M25.592 1.59v.003l.001.045.01.216c.012.199.036.503.086.896.1.786.304 1.925.715 3.287.822 2.723 2.472 6.333 5.792 9.824 3.287 3.457 6.86 5.09 9.602 5.863a18.7 18.7 0 0 0 3.345.632 13 13 0 0 0 1.148.054h.053a1.592 1.592 0 0 1 .197 3.176h-.002l-.007.001-.019.002-.032.003-.235.028c-.212.028-.532.075-.942.15-.822.152-2.001.419-3.397.876-2.797.916-6.43 2.583-9.807 5.586-3.294 2.927-4.926 6.47-5.734 9.316a21 21 0 0 0-.69 3.523 16 16 0 0 0-.084 1.255v.064a1.592 1.592 0 0 1-3.184.042v-.009l-.002-.057-.013-.254a17 17 0 0 0-.1-1.01 23 23 0 0 0-.746-3.54c-.842-2.862-2.481-6.417-5.667-9.348-3.246-2.986-6.864-4.65-9.691-5.566a27 27 0 0 0-3.453-.877 19 19 0 0 0-1.264-.184h-.007a1.593 1.593 0 0 1 .098-3.179h.005l.045-.002q.068-.001.216-.013c.198-.015.501-.044.892-.1a20 20 0 0 0 3.26-.765c2.691-.863 6.238-2.568 9.608-5.939s5.076-6.917 5.939-9.608c.432-1.347.653-2.478.765-3.26a13 13 0 0 0 .114-1.108l.001-.045v-.003.001-.003a1.592 1.592 0 0 1 3.184.024zm0 0"/>
</svg>
